<?xml version="1.0" encoding="UTF-8" standalone="no"?>
<svg
   xmlns:dc="http://purl.org/dc/elements/1.1/"
   xmlns:cc="http://creativecommons.org/ns#"
   xmlns:rdf="http://www.w3.org/1999/02/22-rdf-syntax-ns#"
   xmlns:svg="http://www.w3.org/2000/svg"
   xmlns="http://www.w3.org/2000/svg"
   xmlns:sodipodi="http://sodipodi.sourceforge.net/DTD/sodipodi-0.dtd"
   xmlns:inkscape="http://www.inkscape.org/namespaces/inkscape"
   width="104.8334mm"
   height="41.3041mm"
   viewBox="0 0 104.8334 41.3041"
   version="1.1"
   id="svg4723"
   inkscape:version="1.0.2 (e86c870879, 2021-01-15)"
   sodipodi:docname="cocotb_logo_20210424.svg">
  <defs
     id="defs4717" />
  <sodipodi:namedview
     id="base"
     pagecolor="#ffffff"
     bordercolor="#666666"
     borderopacity="1.0"
     inkscape:pageopacity="0.0"
     inkscape:pageshadow="2"
     inkscape:zoom="3.3163334"
     inkscape:cx="198.11036"
     inkscape:cy="63.87602"
     inkscape:document-units="mm"
     inkscape:current-layer="layer1"
     inkscape:document-rotation="0"
     showgrid="false"
     fit-margin-top="0"
     fit-margin-left="0"
     fit-margin-right="0"
     fit-margin-bottom="0"
     inkscape:window-width="1920"
     inkscape:window-height="1141"
     inkscape:window-x="1920"
     inkscape:window-y="0"
     inkscape:window-maximized="1" />
  <metadata
     id="metadata4720">
    <rdf:RDF>
      <cc:Work
         rdf:about="">
        <dc:format>image/svg+xml</dc:format>
        <dc:type
           rdf:resource="http://purl.org/dc/dcmitype/StillImage" />
        <dc:title></dc:title>
      </cc:Work>
    </rdf:RDF>
  </metadata>
  <g
     inkscape:label="Ebene 1"
     inkscape:groupmode="layer"
     id="layer1"
     transform="translate(-49.982814,-29.394732)">
    <path
       id="path4350"
       style="fill:#3776ab;fill-opacity:1;fill-rule:nonzero;stroke:none;stroke-width:0.640094"
       d="m 70.971104,29.394732 c -3.19084,10e-6 -6.07444,0.51786 -8.6476,1.55288 -2.57511,1.03568 -4.772,2.4759 -6.59052,4.32322 -1.81915,1.84667 -3.23247,4.02947 -4.23934,6.54889 -0.91252,2.2807 -1.41137,4.74581 -1.49741,7.39416 2.80754,3.3581 2.69605,-2.05346 6.05538,-0.17645 0.0899,-1.85885 0.43038,-3.60783 1.02424,-5.24503 0.69963,-1.93181 1.70711,-3.61014 3.02251,-5.03691 1.31475,-1.42741 2.89643,-2.54626 4.74375,-3.35791 1.84668,-0.81164 3.9161,-1.2181 6.21213,-1.2181 2.12704,0 4.09983,0.49092 5.91898,1.46963 1.81787,0.97935 3.20301,2.2244 4.15484,3.73566 l 0.67006,-3.49032 3.77992,0.30007 c -1.67898,-2.23778 -3.87578,-3.93082 -6.58979,-5.07916 -2.71589,-1.14639 -5.38757,-1.72061 -8.01705,-1.72063 z" />
    <path
       id="path4355"
       style="fill:#ffcd3c;fill-opacity:1;fill-rule:nonzero;stroke:none;stroke-width:0.640094"
       d="m 54.725214,49.323252 c -1.64545,-0.007 -2.28809,3.29237 -4.7424,0.82315 0.0112,2.92854 0.51453,5.63756 1.51073,8.12744 1.00687,2.51815 2.42019,4.70095 4.23934,6.54828 1.81852,1.84668 4.01541,3.2888 6.59052,4.32384 2.57319,1.03441 5.45682,1.55287 8.6477,1.55287 3.41299,0 6.33754,-0.61647 8.77246,-1.84738 1.92916,-0.97499 3.62128,-2.21467 5.07623,-3.71773 l 1.76194,1.76193 -0.004,-7.26448 -7.26447,-0.003 c 0.58969,0.58969 1.17938,1.17937 1.76907,1.76907 -1.02529,1.2009 -2.26926,2.20378 -3.73126,3.0055 -1.73658,0.95247 -3.86227,1.42727 -6.38041,1.42727 -2.29666,0 -4.36681,-0.40519 -6.21349,-1.21748 -1.84668,-0.81034 -3.41428,-1.93037 -4.70087,-3.35778 -1.28852,-1.42678 -2.28126,-3.09165 -2.98088,-4.99528 -0.62482,-1.69628 -0.96984,-3.52878 -1.03693,-5.49447 -0.008,-0.23734 -0.0121,-0.47655 -0.0121,-0.71776 0,-0.0353 8.1e-4,-0.0703 10e-4,-0.10548 -0.50705,-0.44462 -0.9306,-0.61644 -1.30261,-0.61807 z" />
    <path
       d="m 78.305524,50.046942 c 0,-1.04859 -0.16821,-2.0369 -0.50431,-2.96464 -0.3364,-0.92743 -0.81334,-1.73401 -1.43142,-2.41974 -0.619,-0.68542 -1.37146,-1.23001 -2.25861,-1.63315 -0.88715,-0.40375 -1.88253,-0.60516 -2.98462,-0.60516 -1.10271,0 -2.09102,0.20141 -2.96433,0.60516 -0.87392,0.40314 -1.62023,0.94773 -2.23831,1.63315 -0.6187,0.68573 -1.09594,1.49231 -1.43174,2.41974 -0.33671,0.92774 -0.5043,1.91605 -0.5043,2.96464 0,1.04858 0.16759,2.03659 0.5043,2.96432 0.3358,0.92743 0.81304,1.73401 1.43174,2.41974 0.61808,0.68543 1.36439,1.22387 2.23831,1.61316 0.87331,0.38992 1.86162,0.58487 2.96433,0.58487 1.10209,0 2.09747,-0.19495 2.98462,-0.58487 0.88715,-0.38929 1.63961,-0.92773 2.25861,-1.61316 0.61808,-0.68573 1.09502,-1.49231 1.43142,-2.41974 0.3361,-0.92773 0.50431,-1.91574 0.50431,-2.96432 m 2.90375,0 c 0,1.42527 -0.24877,2.74261 -0.746,3.95233 -0.49785,1.20972 -1.19004,2.2583 -2.07719,3.14575 -0.88714,0.88715 -1.94956,1.57995 -3.18603,2.07719 -1.23709,0.49692 -2.59502,0.746 -4.07349,0.746 -1.45172,0 -2.79643,-0.24908 -4.0329,-0.746 -1.23709,-0.49724 -2.2992,-1.19004 -3.18635,-2.07719 -0.88714,-0.88745 -1.57964,-1.93603 -2.07687,-3.14575 -0.49785,-1.20972 -0.746,-2.52706 -0.746,-3.95233 0,-1.42497 0.24815,-2.74262 0.746,-3.95265 0.49723,-1.21002 1.18973,-2.2586 2.07687,-3.14575 0.88715,-0.88745 1.94926,-1.57933 3.18635,-2.07687 1.23647,-0.49723 2.58118,-0.74631 4.0329,-0.74631 1.47847,0 2.8364,0.24908 4.07349,0.74631 1.23647,0.49754 2.29889,1.18942 3.18603,2.07687 0.88715,0.88715 1.57934,1.93573 2.07719,3.14575 0.49723,1.21003 0.746,2.52768 0.746,3.95265"
       style="fill:#231f20;fill-opacity:1;fill-rule:nonzero;stroke:none;stroke-width:0.307503"
       id="path4520" />
    <path
       d="m 99.086284,44.924772 c -0.45725,-0.72601 -1.12269,-1.3241 -1.996,-1.79458 -0.87392,-0.47017 -1.82165,-0.70603 -2.84348,-0.70603 -1.10301,0 -2.09717,0.19526 -2.98431,0.58518 -0.88746,0.38991 -1.64729,0.92743 -2.27891,1.61316 -0.63192,0.68542 -1.11592,1.49169 -1.45202,2.41974 -0.33641,0.92743 -0.504,1.92927 -0.504,3.00461 0,1.07564 0.16759,2.07103 0.504,2.98431 0.3361,0.91452 0.81303,1.71433 1.43204,2.39975 0.61808,0.68574 1.37115,1.22387 2.2583,1.61316 0.88714,0.39023 1.88161,0.58488 2.98493,0.58488 1.20971,0 2.23093,-0.22817 3.06519,-0.68574 0.83271,-0.45664 1.51875,-1.04858 2.05627,-1.7746 l 2.057186,1.53291 c -0.80658,0.99477 -1.794886,1.78813 -2.964326,2.37915 -1.16974,0.59132 -2.57472,0.88745 -4.21432,0.88745 -1.5329,0 -2.9182,-0.24908 -4.15437,-0.746 -1.23708,-0.49723 -2.29243,-1.19004 -3.16604,-2.07719 -0.87393,-0.88745 -1.55289,-1.93603 -2.0366,-3.14575 -0.48401,-1.20971 -0.72601,-2.52706 -0.72601,-3.95233 0,-1.42497 0.242,-2.74262 0.72601,-3.95234 0.48371,-1.21033 1.16267,-2.25891 2.0366,-3.14606 0.87361,-0.88745 1.92896,-1.57933 3.16604,-2.07687 1.23617,-0.49723 2.62147,-0.746 4.15437,-0.746 1.26322,0 2.54673,0.27583 3.85147,0.82656 1.30381,0.55166 2.359156,1.36501 3.165736,2.44004 z"
       style="fill:#231f20;fill-opacity:1;fill-rule:nonzero;stroke:none;stroke-width:0.307503"
       id="path4522" />
    <path
       d="m 119.90819,50.046942 c 0,-1.04859 -0.1682,-2.0369 -0.5043,-2.96464 -0.3361,-0.92743 -0.81335,-1.73401 -1.43143,-2.41974 -0.619,-0.68542 -1.37146,-1.23001 -2.2586,-1.63315 -0.88746,-0.40375 -1.88223,-0.60516 -2.98463,-0.60516 -1.1027,0 -2.09071,0.20141 -2.96402,0.60516 -0.87423,0.40314 -1.62023,0.94773 -2.23862,1.63315 -0.61869,0.68573 -1.09563,1.49231 -1.43143,2.41974 -0.33671,0.92774 -0.50461,1.91605 -0.50461,2.96464 0,1.04858 0.1679,2.03659 0.50461,2.96432 0.3358,0.92743 0.81274,1.73401 1.43143,2.41974 0.61839,0.68543 1.36439,1.22387 2.23862,1.61316 0.87331,0.38992 1.86132,0.58487 2.96402,0.58487 1.1024,0 2.09717,-0.19495 2.98463,-0.58487 0.88714,-0.38929 1.6396,-0.92773 2.2586,-1.61316 0.61808,-0.68573 1.09533,-1.49231 1.43143,-2.41974 0.3361,-0.92773 0.5043,-1.91574 0.5043,-2.96432 m 2.90375,0 c 0,1.42527 -0.24877,2.74261 -0.746,3.95233 -0.49785,1.20972 -1.18973,2.2583 -2.07687,3.14575 -0.88746,0.88715 -1.94988,1.57995 -3.18635,2.07719 -1.23708,0.49692 -2.59501,0.746 -4.07349,0.746 -1.45172,0 -2.79674,-0.24908 -4.0329,-0.746 -1.23708,-0.49724 -2.29889,-1.19004 -3.18634,-2.07719 -0.88715,-0.88745 -1.57964,-1.93603 -2.07688,-3.14575 -0.49784,-1.20972 -0.746,-2.52706 -0.746,-3.95233 0,-1.42497 0.24816,-2.74262 0.746,-3.95265 0.49724,-1.21002 1.18973,-2.2586 2.07688,-3.14575 0.88745,-0.88745 1.94926,-1.57933 3.18634,-2.07687 1.23616,-0.49723 2.58118,-0.74631 4.0329,-0.74631 1.47848,0 2.83641,0.24908 4.07349,0.74631 1.23647,0.49754 2.29889,1.18942 3.18635,2.07687 0.88714,0.88715 1.57902,1.93573 2.07687,3.14575 0.49723,1.21003 0.746,2.52768 0.746,3.95265"
       style="fill:#231f20;fill-opacity:1;fill-rule:nonzero;stroke:none;stroke-width:0.307503"
       id="path4524" />
    <g
       id="g4528"
       transform="matrix(0.30750282,0,0,-0.30750282,78.305524,50.046942)">
      <path
         d="m 0,0 c 0,3.41 -0.547,6.624 -1.64,9.641 -1.094,3.016 -2.645,5.639 -4.655,7.869 -2.013,2.229 -4.46,4 -7.345,5.311 -2.885,1.313 -6.122,1.968 -9.706,1.968 -3.586,0 -6.8,-0.655 -9.64,-1.968 -2.842,-1.311 -5.269,-3.082 -7.279,-5.311 -2.012,-2.23 -3.564,-4.853 -4.656,-7.869 -1.095,-3.017 -1.64,-6.231 -1.64,-9.641 0,-3.41 0.545,-6.623 1.64,-9.64 1.092,-3.016 2.644,-5.639 4.656,-7.869 2.01,-2.229 4.437,-3.98 7.279,-5.246 2.84,-1.268 6.054,-1.902 9.64,-1.902 3.584,0 6.821,0.634 9.706,1.902 2.885,1.266 5.332,3.017 7.345,5.246 2.01,2.23 3.561,4.853 4.655,7.869 C -0.547,-6.623 0,-3.41 0,0 Z m 9.443,0 c 0,-4.635 -0.809,-8.919 -2.426,-12.853 -1.619,-3.934 -3.87,-7.344 -6.755,-10.23 -2.885,-2.885 -6.34,-5.138 -10.361,-6.755 -4.023,-1.616 -8.439,-2.426 -13.247,-2.426 -4.721,0 -9.094,0.81 -13.115,2.426 -4.023,1.617 -7.477,3.87 -10.362,6.755 -2.885,2.886 -5.137,6.296 -6.754,10.23 -1.619,3.934 -2.426,8.218 -2.426,12.853 0,4.634 0.807,8.919 2.426,12.854 1.617,3.935 3.869,7.345 6.754,10.23 2.885,2.886 6.339,5.136 10.362,6.754 4.021,1.617 8.394,2.427 13.115,2.427 4.808,0 9.224,-0.81 13.247,-2.427 C -6.078,28.22 -2.623,25.97 0.262,23.084 3.147,20.199 5.398,16.789 7.017,12.854 8.634,8.919 9.443,4.634 9.443,0 Z"
         style="fill:none;stroke:#231f20;stroke-width:1;stroke-linecap:butt;stroke-linejoin:miter;stroke-miterlimit:10;stroke-dasharray:none;stroke-opacity:1"
         id="path4526" />
    </g>
    <g
       id="g4532"
       transform="matrix(0.30750282,0,0,-0.30750282,99.086284,44.924772)">
      <path
         d="m 0,0 c -1.487,2.361 -3.651,4.306 -6.491,5.836 -2.842,1.529 -5.924,2.296 -9.247,2.296 -3.587,0 -6.82,-0.635 -9.705,-1.903 -2.886,-1.268 -5.357,-3.016 -7.411,-5.246 -2.055,-2.229 -3.629,-4.851 -4.722,-7.869 -1.094,-3.016 -1.639,-6.274 -1.639,-9.771 0,-3.498 0.545,-6.735 1.639,-9.705 1.093,-2.974 2.644,-5.575 4.657,-7.804 2.01,-2.23 4.459,-3.98 7.344,-5.246 2.885,-1.269 6.119,-1.902 9.707,-1.902 3.934,0 7.255,0.742 9.968,2.23 2.708,1.485 4.939,3.41 6.687,5.771 l 6.69,-4.985 c -2.623,-3.235 -5.837,-5.815 -9.64,-7.737 -3.804,-1.923 -8.373,-2.886 -13.705,-2.886 -4.985,0 -9.49,0.81 -13.51,2.426 -4.023,1.617 -7.455,3.87 -10.296,6.755 -2.842,2.886 -5.05,6.296 -6.623,10.23 -1.574,3.934 -2.361,8.218 -2.361,12.853 0,4.634 0.787,8.919 2.361,12.853 1.573,3.936 3.781,7.346 6.623,10.231 2.841,2.886 6.273,5.136 10.296,6.754 4.02,1.617 8.525,2.426 13.51,2.426 4.108,0 8.282,-0.897 12.525,-2.688 C 0.897,11.125 4.329,8.48 6.952,4.984 Z"
         style="fill:none;stroke:#231f20;stroke-width:1;stroke-linecap:butt;stroke-linejoin:miter;stroke-miterlimit:10;stroke-dasharray:none;stroke-opacity:1"
         id="path4530" />
    </g>
    <g
       id="g4536"
       transform="matrix(0.30750282,0,0,-0.30750282,119.90819,50.046942)">
      <path
         d="m 0,0 c 0,3.41 -0.547,6.624 -1.64,9.641 -1.093,3.016 -2.645,5.639 -4.655,7.869 -2.013,2.229 -4.46,4 -7.345,5.311 -2.886,1.313 -6.121,1.968 -9.706,1.968 -3.586,0 -6.799,-0.655 -9.639,-1.968 -2.843,-1.311 -5.269,-3.082 -7.28,-5.311 -2.012,-2.23 -3.563,-4.853 -4.655,-7.869 C -46.015,6.624 -46.561,3.41 -46.561,0 c 0,-3.41 0.546,-6.623 1.641,-9.64 1.092,-3.016 2.643,-5.639 4.655,-7.869 2.011,-2.229 4.437,-3.98 7.28,-5.246 2.84,-1.268 6.053,-1.902 9.639,-1.902 3.585,0 6.82,0.634 9.706,1.902 2.885,1.266 5.332,3.017 7.345,5.246 2.01,2.23 3.562,4.853 4.655,7.869 C -0.547,-6.623 0,-3.41 0,0 Z m 9.443,0 c 0,-4.635 -0.809,-8.919 -2.426,-12.853 -1.619,-3.934 -3.869,-7.344 -6.754,-10.23 -2.886,-2.885 -6.341,-5.138 -10.362,-6.755 -4.023,-1.616 -8.439,-2.426 -13.247,-2.426 -4.721,0 -9.095,0.81 -13.115,2.426 -4.023,1.617 -7.476,3.87 -10.362,6.755 -2.885,2.886 -5.137,6.296 -6.754,10.23 -1.619,3.934 -2.426,8.218 -2.426,12.853 0,4.634 0.807,8.919 2.426,12.854 1.617,3.935 3.869,7.345 6.754,10.23 2.886,2.886 6.339,5.136 10.362,6.754 4.02,1.617 8.394,2.427 13.115,2.427 4.808,0 9.224,-0.81 13.247,-2.427 C -6.078,28.22 -2.623,25.97 0.263,23.084 3.148,20.199 5.398,16.789 7.017,12.854 8.634,8.919 9.443,4.634 9.443,0 Z"
         style="fill:none;stroke:#231f20;stroke-width:1;stroke-linecap:butt;stroke-linejoin:miter;stroke-miterlimit:10;stroke-dasharray:none;stroke-opacity:1"
         id="path4534" />
    </g>
    <g
       id="g4540"
       transform="matrix(0.30750282,0,0,-0.30750282,151.25441,53.031252)">
      <path
         d="m 0,0 c -1.092,-3.018 -2.666,-5.641 -4.722,-7.87 -2.053,-2.23 -4.525,-3.977 -7.411,-5.245 -2.885,-1.268 -6.117,-1.797 -9.704,-1.797 h -11.176 v 49.569 h 11.206 c 4.965,0 6.922,-0.862 9.807,-2.131 C -9.115,31.26 -6.667,29.51 -4.656,27.28 -2.644,25.051 -1.092,22.45 0,19.477 1.094,16.505 1.639,13.27 1.639,9.771 1.639,6.274 1.094,3.017 0,0 m 8.722,22.624 c -1.574,3.935 -3.781,7.345 -6.623,10.23 -2.841,2.885 -6.273,5.138 -10.296,6.755 -4.021,1.617 -8.525,2.394 -13.51,2.394 l -11.306,-0.008 v 17.451 h -8.918 V 41.989 L -68.196,41.97 v 17.476 h -8.918 V 41.97 h -12.722 v -7.313 h 12.722 V -5.378 c 0,-3.41 0.502,-6.164 1.508,-8.263 1.003,-2.098 2.295,-3.759 3.869,-4.983 1.574,-1.226 3.279,-2.056 5.114,-2.492 1.837,-0.437 3.585,-0.655 5.247,-0.655 2.01,0 3.869,0.153 5.574,0.458 1.705,0.308 3.345,0.765 4.918,1.377 l -0.393,7.739 c -1.226,-0.613 -2.515,-1.095 -3.869,-1.444 -1.357,-0.349 -2.646,-0.524 -3.869,-0.524 -1.312,0 -2.537,0.151 -3.673,0.46 -1.137,0.305 -2.121,0.872 -2.951,1.704 -0.832,0.83 -1.465,1.988 -1.901,3.477 -0.439,1.485 -0.656,3.364 -0.656,5.638 v 37.543 h 26.265 v -57.15 h 20.224 c 4.985,0 9.489,0.808 13.51,2.426 4.023,1.619 7.455,3.869 10.296,6.754 2.842,2.885 5.049,6.295 6.623,10.23 1.573,3.936 2.361,8.221 2.361,12.854 0,4.635 -0.788,8.918 -2.361,12.853"
         style="fill:#231f20;fill-opacity:1;fill-rule:nonzero;stroke:none"
         id="path4538" />
    </g>
    <path
       d="m 151.25441,53.031252 c -0.33579,0.92804 -0.8198,1.73463 -1.45202,2.42005 -0.63131,0.68573 -1.39145,1.22294 -2.27891,1.61285 -0.88714,0.38992 -1.88099,0.55258 -2.984,0.55258 h -3.43665 v -15.2426 h 3.44587 c 1.52675,0 2.12853,0.26506 3.01568,0.65528 0.88715,0.3893 1.63991,0.92743 2.2583,1.61316 0.6187,0.68543 1.09594,1.48524 1.43173,2.39945 0.33641,0.9139 0.504,1.90867 0.504,2.98462 0,1.07534 -0.16759,2.07688 -0.504,3.00461 z m 2.68204,-6.95694 c -0.48401,-1.21003 -1.16266,-2.25861 -2.03659,-3.14576 -0.87361,-0.88714 -1.92896,-1.57994 -3.16605,-2.07718 -1.23647,-0.49723 -2.62146,-0.73616 -4.15436,-0.73616 l -3.47662,0.002 v -5.36623 h -2.74231 v 5.36808 l -8.07657,0.006 v -5.37392 h -2.74231 v 5.37392 h -3.91205 v 2.24877 h 3.91205 v 12.31088 c 0,1.04858 0.15437,1.89544 0.46372,2.54089 0.30842,0.64514 0.70572,1.15591 1.18973,1.53229 0.48401,0.377 1.0083,0.63222 1.57257,0.76629 0.56488,0.13438 1.10239,0.20142 1.61346,0.20142 0.61808,0 1.18973,-0.0471 1.71402,-0.14084 0.5243,-0.0947 1.0286,-0.23524 1.5123,-0.42343 l -0.12084,-2.37976 c -0.377,0.1885 -0.77337,0.33671 -1.18973,0.44403 -0.41729,0.10732 -0.81366,0.16113 -1.18973,0.16113 -0.40345,0 -0.78014,-0.0464 -1.12946,-0.14145 -0.34963,-0.0938 -0.65221,-0.26814 -0.90744,-0.52398 -0.25584,-0.25523 -0.45049,-0.61132 -0.58456,-1.06919 -0.135,-0.45664 -0.20173,-1.03444 -0.20173,-1.7337 v -11.54458 h 8.07657 v 17.57379 h 6.21893 c 1.5329,0 2.91789,-0.24847 4.15436,-0.746 1.23709,-0.49785 2.29244,-1.18973 3.16605,-2.07688 0.87393,-0.88715 1.55258,-1.93573 2.03659,-3.14575 0.48371,-1.21033 0.72602,-2.52798 0.72602,-3.95264 0,-1.42528 -0.24231,-2.74232 -0.72602,-3.95234 z"
       style="fill:none;stroke:#231f20;stroke-width:0.307503;stroke-linecap:butt;stroke-linejoin:miter;stroke-miterlimit:10;stroke-dasharray:none;stroke-opacity:1"
       id="path4542" />
  </g>
</svg>
